<svg width="838" height="215" viewBox="0 0 838 215" fill="none" xmlns="http://www.w3.org/2000/svg">
<path d="M134 102.862L204.141 116.185V168.693L134 155.37V102.862Z" fill="#D9D9D9"/>
<path d="M134 155.37L182.589 125.981L204.141 135.777V168.693L134 155.37Z" fill="#999999"/>
<path d="M204.141 116.185L259 77.7837V130.683L204.141 168.693V116.185Z" fill="url(#paint0_linear_329_2)"/>
<path d="M168.875 87.1881L222.558 53.489L259 77.7837L204.141 116.185L168.875 87.1881Z" fill="url(#paint1_linear_329_2)"/>
<path d="M168.875 87.1881L222.95 53.489L188.859 64.4608L134 102.862L168.875 87.1881Z" fill="url(#paint2_linear_329_2)"/>
<path d="M168.875 87.1881L204.141 116.185L134 102.862L168.875 87.1881Z" fill="url(#paint3_linear_329_2)"/>
<path d="M134 116.185L204.141 129.508V134.21L134 120.887V116.185Z" fill="#616161"/>
<path d="M134 111.875L204.141 125.197V129.9L134 116.577V111.875Z" fill="#AEAEAE"/>
<path d="M134 107.172L204.141 120.495V125.197L134 111.875V107.172Z" fill="#616161"/>
<path d="M134 102.862L204.141 116.185V120.887L134 107.564V102.862Z" fill="#AEAEAE"/>
<path d="M134 120.887L204.141 134.21V138.912L134 125.589V120.887Z" fill="#AEAEAE"/>
<path d="M193.895 141.263L203.242 142.993V148.467L193.895 147.991V141.263Z" fill="#626262"/>
<path d="M199.551 144.541L203.242 142.993V148.476L199.551 150.018V144.541Z" fill="url(#paint4_linear_329_2)"/>
<path d="M190.263 142.695L193.954 141.266V145.91L190.263 147.219V142.695Z" fill="#868686"/>
<path d="M190.263 142.695L199.551 144.541V150.018L190.263 148.113V142.695Z" fill="url(#paint5_linear_329_2)"/>
<g filter="url(#filter0_d_329_2)">
<path d="M190.263 142.695L199.551 144.541L198.42 146.684L189.251 144.779L190.263 142.695Z" fill="url(#paint6_linear_329_2)"/>
</g>
<g filter="url(#filter1_d_329_2)">
<path d="M199.551 144.541L203.242 142.993L204.141 144.541L200.45 146.089L199.551 144.541Z" fill="url(#paint7_linear_329_2)"/>
</g>
<path d="M179.788 138.912L189.136 140.642V146.116L179.788 145.64V138.912Z" fill="#626262"/>
<path d="M185.444 142.19L189.136 140.642V146.125L185.444 147.667V142.19Z" fill="url(#paint8_linear_329_2)"/>
<path d="M176.156 140.344L179.848 138.915V143.559L176.156 144.868V140.344Z" fill="#868686"/>
<path d="M176.156 140.344L185.444 142.19V147.667L176.156 145.762V140.344Z" fill="url(#paint9_linear_329_2)"/>
<g filter="url(#filter2_d_329_2)">
<path d="M176.156 140.344L185.444 142.19L184.313 144.333L175.144 142.428L176.156 140.344Z" fill="url(#paint10_linear_329_2)"/>
</g>
<g filter="url(#filter3_d_329_2)">
<path d="M185.444 142.19L189.136 140.642L190.034 142.19L186.343 143.738L185.444 142.19Z" fill="url(#paint11_linear_329_2)"/>
</g>
<path d="M186.841 145.182L196.189 146.911V152.386L186.841 151.91V145.182Z" fill="#626262"/>
<path d="M192.498 148.459L196.189 146.911V152.395L192.498 153.937V148.459Z" fill="url(#paint12_linear_329_2)"/>
<path d="M183.21 146.614L186.901 145.185V149.829L183.21 151.138V146.614Z" fill="#868686"/>
<path d="M183.21 146.614L192.498 148.459V153.937L183.21 152.032V146.614Z" fill="url(#paint13_linear_329_2)"/>
<g filter="url(#filter4_d_329_2)">
<path d="M183.21 146.614L192.498 148.459L191.366 150.603L182.198 148.698L183.21 146.614Z" fill="url(#paint14_linear_329_2)"/>
</g>
<g filter="url(#filter5_d_329_2)">
<path d="M192.498 148.459L196.189 146.911L197.088 148.459L193.396 150.007L192.498 148.459Z" fill="url(#paint15_linear_329_2)"/>
</g>
<path d="M172.735 142.047L182.082 143.777V149.251L172.735 148.775V142.047Z" fill="#626262"/>
<path d="M178.391 145.325L182.082 143.777V149.26L178.391 150.802V145.325Z" fill="url(#paint16_linear_329_2)"/>
<path d="M169.103 143.479L172.794 142.05V146.694L169.103 148.003V143.479Z" fill="#868686"/>
<path d="M169.103 143.479L178.391 145.325V150.802L169.103 148.897V143.479Z" fill="url(#paint17_linear_329_2)"/>
<g filter="url(#filter6_d_329_2)">
<path d="M169.103 143.479L178.391 145.325L177.26 147.468L168.091 145.563L169.103 143.479Z" fill="url(#paint18_linear_329_2)"/>
</g>
<g filter="url(#filter7_d_329_2)">
<path d="M178.391 145.325L182.082 143.777L182.981 145.325L179.29 146.873L178.391 145.325Z" fill="url(#paint19_linear_329_2)"/>
</g>
<path d="M179.788 149.884L189.136 151.614V157.088L179.788 156.612V149.884Z" fill="#626262"/>
<path d="M185.444 153.162L189.136 151.614V157.097L185.444 158.639V153.162Z" fill="url(#paint20_linear_329_2)"/>
<path d="M176.156 151.316L179.848 149.887V154.531L176.156 155.84V151.316Z" fill="#868686"/>
<path d="M176.156 151.316L185.444 153.162V158.639L176.156 156.734V151.316Z" fill="url(#paint21_linear_329_2)"/>
<g filter="url(#filter8_d_329_2)">
<path d="M176.156 151.316L185.444 153.162L184.313 155.305L175.144 153.4L176.156 151.316Z" fill="url(#paint22_linear_329_2)"/>
</g>
<g filter="url(#filter9_d_329_2)">
<path d="M185.444 153.162L189.136 151.614L190.034 153.162L186.343 154.71L185.444 153.162Z" fill="url(#paint23_linear_329_2)"/>
</g>
<path d="M164.114 145.966L173.462 147.695V153.17L164.114 152.693V145.966Z" fill="#626262"/>
<path d="M169.77 149.243L173.462 147.695V153.178L169.77 154.721V149.243Z" fill="url(#paint24_linear_329_2)"/>
<path d="M160.482 147.397L164.174 145.969V150.613L160.482 151.922V147.397Z" fill="#868686"/>
<path d="M160.482 147.397L169.77 149.243V154.721L160.482 152.815V147.397Z" fill="url(#paint25_linear_329_2)"/>
<g filter="url(#filter10_d_329_2)">
<path d="M160.482 147.397L169.77 149.243L168.639 151.387L159.47 149.481L160.482 147.397Z" fill="url(#paint26_linear_329_2)"/>
</g>
<g filter="url(#filter11_d_329_2)">
<path d="M169.77 149.243L173.462 147.695L174.36 149.243L170.669 150.791L169.77 149.243Z" fill="url(#paint27_linear_329_2)"/>
</g>
<path d="M170.544 153.019L181.79 155.1V161.687L170.544 161.114V153.019Z" fill="#626262"/>
<path d="M177.349 156.962L181.79 155.1V161.697L177.349 163.553V156.962Z" fill="url(#paint28_linear_329_2)"/>
<path d="M166.174 154.742L170.615 153.022V158.61L166.174 160.185V154.742Z" fill="#868686"/>
<path d="M166.174 154.742L177.349 156.962V163.553L166.174 161.26V154.742Z" fill="url(#paint29_linear_329_2)"/>
<g filter="url(#filter12_d_329_2)">
<path d="M166.174 154.742L177.349 156.962L175.988 159.541L164.956 157.249L166.174 154.742Z" fill="url(#paint30_linear_329_2)"/>
</g>
<g filter="url(#filter13_d_329_2)">
<path d="M177.349 156.962L181.79 155.1L182.872 156.962L178.43 158.825L177.349 156.962Z" fill="url(#paint31_linear_329_2)"/>
</g>
<path d="M154.086 149.884L165.333 151.965V158.552L154.086 157.979V149.884Z" fill="#626262"/>
<path d="M160.891 153.828L165.333 151.965V158.562L160.891 160.418V153.828Z" fill="url(#paint32_linear_329_2)"/>
<path d="M149.716 151.607L154.158 149.888V155.475L149.716 157.05V151.607Z" fill="#868686"/>
<path d="M149.716 151.607L160.891 153.828V160.418L149.716 158.126V151.607Z" fill="url(#paint33_linear_329_2)"/>
<g filter="url(#filter14_d_329_2)">
<path d="M149.716 151.607L160.891 153.828L159.53 156.406L148.498 154.114L149.716 151.607Z" fill="url(#paint34_linear_329_2)"/>
</g>
<g filter="url(#filter15_d_329_2)">
<path d="M160.891 153.828L165.333 151.965L166.414 153.828L161.973 155.69L160.891 153.828Z" fill="url(#paint35_linear_329_2)"/>
</g>
<path d="M301 95.4329C301 95.4329 355.541 95.4329 421.975 95.4329C434.198 95.4329 441.212 99.5218 451.092 105.129C461.596 111.09 471.938 115.026 477.747 124.52C481.956 131.398 478.977 143.219 478.977 143.219H301V95.4329Z" fill="url(#paint36_linear_329_2)"/>
<path d="M448.631 103.744C448.631 103.744 467.085 113.439 470.365 116.21C475.286 120.365 475.696 121.404 475.696 121.404H423.205C423.205 121.404 422.386 107.899 425.666 105.129C429.61 101.798 448.631 103.744 448.631 103.744Z" fill="url(#paint37_linear_329_2)"/>
<path d="M383.669 104.803C383.669 104.803 395.844 104.781 400.313 108.551C404.5 112.082 404.752 121.668 404.752 121.668H383.669V104.803Z" fill="url(#paint38_linear_329_2)"/>
<path d="M351.489 104.803C351.489 104.803 363.664 104.781 368.134 108.551C372.321 112.082 372.572 121.668 372.572 121.668H351.489V104.803Z" fill="url(#paint39_linear_329_2)"/>
<path d="M319.864 104.803C319.864 104.803 332.039 104.781 336.509 108.551C340.696 112.082 340.947 121.668 340.947 121.668H319.864V104.803Z" fill="url(#paint40_linear_329_2)"/>
<path d="M301 131.038H479.785C479.785 131.038 479.954 131.682 479.954 132.666C479.954 133.218 479.954 133.849 479.954 133.849H301V131.038Z" fill="#F2F2F2"/>
<path d="M301.182 135.723H479.976C479.976 135.723 479.976 135.955 479.976 136.611C479.976 136.979 479.835 137.597 479.835 137.597H301.182V135.723Z" fill="#F2F2F2"/>
<path d="M301 139.471H479.653C479.653 139.471 479.653 139.283 479.653 139.94C479.653 140.307 479.362 141.345 479.362 141.345H301V139.471Z" fill="#F2F2F2"/>
<path d="M335.399 88.874L327.632 95.4329L325.412 95.4329L333.18 88.874L335.399 88.874Z" fill="#D9D9D9"/>
<path d="M317.645 88.874L325.412 95.4329L327.631 95.4329L319.864 88.874L317.645 88.874Z" fill="#D9D9D9"/>
<path d="M423.061 88.874L415.293 95.4329L413.074 95.4329L420.842 88.874L423.061 88.874Z" fill="#D9D9D9"/>
<path d="M405.307 88.874L413.074 95.4329L415.293 95.4329L407.526 88.874L405.307 88.874Z" fill="#D9D9D9"/>
<rect x="301" y="87" width="178.653" height="1.87397" fill="#636363"/>
<rect x="301" y="142.956" width="178.653" height="1.87397" fill="#636363"/>
<path d="M522.5 96.2685H624.662V127.691H522.5V96.2685Z" fill="url(#paint41_linear_329_2)" stroke="#646464"/>
<path d="M662.601 116.588L662.592 116.59L662.592 116.59L662.592 116.59L662.592 116.59L662.592 116.59L662.591 116.59L662.591 116.59L662.2 116.686L662.211 117.09L662.541 128.957L662.541 128.958L662.855 139.651H610.837C610.855 139.347 610.872 138.936 610.871 138.464C610.868 137.473 610.785 136.179 610.445 135.061C610.124 134.007 609.438 132.725 608.852 131.731C608.635 131.363 608.428 131.029 608.254 130.754H627.438H627.938V130.254V95.6571L630.735 94.5385L637.142 97.1015L637.219 97.1323L637.302 97.1366L650.145 97.7952L650.176 97.7985C650.204 97.8016 650.248 97.8065 650.304 97.8132C650.416 97.8265 650.58 97.847 650.783 97.8755C651.191 97.9325 651.757 98.0211 652.39 98.1476C653.672 98.4036 655.172 98.8038 656.203 99.3811C656.341 99.4582 656.47 99.5289 656.591 99.5956C657.346 100.011 657.814 100.268 658.377 100.92C658.867 101.489 659.036 101.937 659.275 102.571C659.369 102.821 659.474 103.1 659.614 103.427C660.484 105.457 660.973 108.28 661.241 110.632C661.375 111.8 661.452 112.839 661.497 113.586C661.519 113.959 661.533 114.259 661.541 114.465C661.545 114.568 661.548 114.647 661.549 114.7L661.551 114.761L661.552 114.776L661.552 114.779L661.552 114.78L661.552 114.78L661.562 115.198L661.974 115.262L661.975 115.262L661.975 115.262L661.975 115.262L661.975 115.262L661.975 115.262L661.98 115.263L662.005 115.268C662.029 115.272 662.064 115.279 662.108 115.289C662.196 115.309 662.315 115.339 662.439 115.382C662.565 115.426 662.684 115.479 662.78 115.538C662.878 115.599 662.921 115.649 662.936 115.675C663.04 115.858 663.089 116.014 663.095 116.134C663.1 116.239 663.074 116.327 662.997 116.414C662.997 116.414 662.997 116.414 662.996 116.414C662.994 116.416 662.978 116.431 662.936 116.456C662.893 116.48 662.841 116.504 662.786 116.526C662.731 116.548 662.68 116.564 662.643 116.576C662.635 116.578 662.628 116.58 662.621 116.582C662.613 116.584 662.606 116.586 662.601 116.588Z" fill="url(#paint42_linear_329_2)" stroke="#707070"/>
<path d="M590.712 133.164L590.676 133.253V133.349V139.112H560.522V134.338V133.838H560.022L522.795 133.838V130.552L558.541 130.552L592.749 130.552C592.584 130.691 592.385 130.851 592.143 131.034C591.691 131.377 591.333 131.935 591.101 132.355C590.98 132.574 590.884 132.774 590.818 132.92C590.784 132.992 590.759 133.052 590.741 133.094C590.737 133.102 590.735 133.109 590.732 133.115C590.727 133.127 590.723 133.136 590.72 133.144L590.714 133.158L590.713 133.162L590.712 133.163L590.712 133.164L590.712 133.164C590.712 133.164 590.712 133.164 591.176 133.349L590.712 133.164Z" fill="#6B6B6B" stroke="#767676"/>
<circle cx="600.736" cy="136.785" r="7.91164" fill="url(#paint43_radial_329_2)"/>
<circle cx="643.591" cy="136.785" r="7.91164" fill="url(#paint44_radial_329_2)"/>
<circle cx="537.575" cy="137.281" r="7.91164" fill="url(#paint45_radial_329_2)"/>
<circle cx="554.081" cy="137.281" r="7.91164" fill="url(#paint46_radial_329_2)"/>
<path d="M638.317 106.457H646.228V115.028C646.228 115.028 643.737 114.664 642.272 114.039C640.565 113.31 639.869 113.029 638.976 111.402C638.047 109.709 638.317 106.457 638.317 106.457Z" fill="url(#paint47_linear_329_2)"/>
<path d="M647.191 107.446H658.729L658.755 117.995H656.118V116.347H647.178L647.191 107.446Z" fill="url(#paint48_linear_329_2)"/>
<path d="M643.591 123.599L660.733 127.225V127.884V136.126H660.074V127.884L643.591 124.258V123.599Z" fill="#D9D9D9"/>
<path d="M736.028 69.8626H750.416L752.919 155.569H732.9L736.028 69.8626Z" fill="url(#paint49_linear_329_2)"/>
<path d="M736.028 69.8626H750.416L752.919 155.569H732.9L736.028 69.8626Z" fill="url(#paint50_linear_329_2)"/>
<path d="M713.506 69.8626H727.895L730.398 155.569H710.379L713.506 69.8626Z" fill="url(#paint51_linear_329_2)"/>
<path d="M713.506 69.8626H727.895L730.398 155.569H710.379L713.506 69.8626Z" fill="url(#paint52_linear_329_2)"/>
<path d="M809.223 67.9858L831.744 47.3412V155.569H809.223V67.9858Z" fill="url(#paint53_linear_329_2)"/>
<path d="M759.801 67.3602C759.801 67.3602 759.892 57.9763 765.431 57.9763C770.97 57.9763 771.062 67.3602 771.062 67.3602L771.062 155.569H759.801L759.801 67.3602Z" fill="url(#paint54_linear_329_2)"/>
<path d="M772.938 67.3602C772.938 67.3602 773.03 57.9763 778.569 57.9763C784.108 57.9763 784.199 67.3602 784.199 67.3602L784.199 155.569H772.938L772.938 67.3602Z" fill="url(#paint55_linear_329_2)"/>
<path d="M786.076 67.3602C786.076 67.3602 786.167 57.9763 791.706 57.9763C797.245 57.9763 797.337 67.3602 797.337 67.3602L797.337 155.569H786.076L786.076 67.3602Z" fill="url(#paint56_linear_329_2)"/>
<path d="M739.423 111.574L774.315 89.5375V111.152V112.086L775.093 111.568L808.097 89.5646V111.152V112.164L808.901 111.549L837.5 89.6431V111.152V155.069H706.5V111.416L738.656 89.5744V111.152V112.059L739.423 111.574Z" fill="url(#paint57_linear_329_2)" stroke="#656565"/>
<path d="M1.05945 97.4917L71.9592 89L100.992 92.2522L28.4095 104.899L1.05945 97.4917Z" fill="url(#paint58_linear_329_2)"/>
<path d="M27.7782 104.719L100.992 92.2522V122.967L27.7782 151.514V104.719Z" fill="url(#paint59_linear_329_2)"/>
<path d="M0.849243 97.1304L27.9889 104.719V151.694L0.849243 133.988V97.1304Z" fill="url(#paint60_linear_329_2)"/>
<path d="M0.849243 97.1304L27.9889 104.538V105.622L0.849243 97.8531V97.1304Z" fill="#535353"/>
<path d="M0.849243 97.1304L27.9889 104.538V105.622L0.849243 97.8531V97.1304Z" fill="#535353"/>
<path d="M0.849243 132.904L27.9889 150.61V151.694L0.849243 134.101V132.904Z" fill="#535353"/>
<path d="M0.849243 132.904L27.9889 150.61V151.694L0.849243 134.101V132.904Z" fill="#535353"/>
<path d="M12.8412 100.925L15.1554 101.647V142.661L12.8412 141.215V100.925Z" fill="#535353"/>
<path d="M0.866243 96.9269L1.692 97.6475L1.4889 134.399L0.64978 134.039L0.866243 96.9269Z" fill="#535353"/>
<path d="M27.9888 104.538L100.782 92.4328V93.1555L27.9888 105.622V104.538Z" fill="#535353"/>
<path d="M27.9888 150.61L100.992 122.064V122.967L27.9888 151.694V150.61Z" fill="#535353"/>
<path d="M27.568 105.441L27.9888 105.622V150.61L27.568 150.355V105.441Z" fill="#535353"/>
<path d="M28.4095 105.441H27.9888V150.61L28.4095 150.453V105.441Z" fill="#535353"/>
<path d="M100.086 92.6031L101 92.2428V122.659H100.086V92.6031Z" fill="#535353"/>
<path d="M71.9755 89L100.925 92.2428V92.6031L71.5559 89.3603L71.9755 89Z" fill="#535353"/>
<path d="M0.851318 96.9269L71.9752 89L72.3947 89.3603L0.851318 97.6475V96.9269Z" fill="#535353"/>
<path d="M88 212.5L87.8314 213.99L87.8314 213.99L88 212.5ZM174.993 182.144C175.073 181.32 174.469 180.587 173.644 180.507L160.207 179.21C159.382 179.13 158.649 179.734 158.569 180.559C158.49 181.383 159.094 182.116 159.918 182.196L171.863 183.349L170.71 195.293C170.63 196.118 171.234 196.851 172.059 196.931C172.883 197.01 173.616 196.406 173.696 195.582L174.993 182.144ZM17.0001 171.5C15.835 172.445 15.8354 172.445 15.8359 172.446C15.8362 172.446 15.8369 172.447 15.8375 172.448C15.8388 172.449 15.8405 172.452 15.8427 172.454C15.8471 172.46 15.8532 172.467 15.8612 172.477C15.8771 172.496 15.9001 172.524 15.9302 172.561C15.9905 172.633 16.079 172.74 16.1953 172.877C16.428 173.152 16.7718 173.553 17.2225 174.063C18.124 175.082 19.4537 176.537 21.1779 178.295C24.6251 181.811 29.6554 186.544 35.9987 191.426C48.6665 201.176 66.6724 211.597 87.8314 213.99L88.1686 211.009C67.7637 208.702 50.2696 198.624 37.8284 189.048C31.6172 184.268 26.6908 179.633 23.3199 176.195C21.635 174.477 20.3403 173.059 19.4696 172.075C19.0343 171.583 18.7051 171.199 18.4863 170.94C18.3769 170.811 18.295 170.713 18.2413 170.648C18.2145 170.615 18.1947 170.591 18.1819 170.576C18.1756 170.568 18.171 170.562 18.1682 170.559C18.1668 170.557 18.1658 170.556 18.1653 170.555C18.1651 170.555 18.165 170.555 18.1649 170.555C18.165 170.555 18.1651 170.555 17.0001 171.5ZM87.8314 213.99C109.578 216.45 131.272 208.673 147.421 200.393C155.515 196.243 162.262 191.942 166.988 188.678C169.352 187.045 171.212 185.671 172.484 184.702C173.12 184.217 173.609 183.834 173.941 183.57C174.107 183.439 174.233 183.337 174.319 183.267C174.362 183.232 174.395 183.206 174.417 183.187C174.429 183.178 174.437 183.171 174.443 183.166C174.446 183.164 174.449 183.162 174.451 183.16C174.451 183.16 174.452 183.159 174.453 183.159C174.453 183.158 174.454 183.158 173.5 182C172.546 180.842 172.546 180.842 172.546 180.842C172.546 180.842 172.546 180.843 172.545 180.843C172.545 180.844 172.543 180.845 172.541 180.847C172.536 180.85 172.53 180.856 172.52 180.864C172.501 180.879 172.472 180.903 172.432 180.935C172.353 180.999 172.234 181.095 172.075 181.221C171.759 181.472 171.285 181.843 170.666 182.315C169.427 183.259 167.604 184.606 165.283 186.209C160.638 189.417 154.004 193.646 146.052 197.723C130.108 205.898 109.051 213.371 88.1686 211.009L87.8314 213.99Z" fill="url(#paint61_linear_329_2)"/>
<path d="M494.07 212.5L493.901 213.99L493.901 213.99L494.07 212.5ZM581.063 182.144C581.143 181.32 580.539 180.587 579.714 180.507L566.277 179.21C565.452 179.13 564.719 179.734 564.639 180.559C564.56 181.383 565.164 182.116 565.988 182.196L577.933 183.349L576.78 195.293C576.7 196.118 577.304 196.851 578.129 196.931C578.953 197.01 579.686 196.406 579.766 195.582L581.063 182.144ZM423.07 171.5C421.905 172.445 421.905 172.445 421.906 172.446C421.906 172.446 421.907 172.447 421.907 172.448C421.909 172.449 421.91 172.452 421.913 172.454C421.917 172.46 421.923 172.467 421.931 172.477C421.947 172.496 421.97 172.524 422 172.561C422.06 172.633 422.149 172.74 422.265 172.877C422.498 173.152 422.842 173.553 423.292 174.063C424.194 175.082 425.524 176.537 427.248 178.295C430.695 181.811 435.725 186.544 442.069 191.426C454.736 201.176 472.742 211.597 493.901 213.99L494.239 211.009C473.834 208.702 456.34 198.624 443.898 189.048C437.687 184.268 432.761 179.633 429.39 176.195C427.705 174.477 426.41 173.059 425.54 172.075C425.104 171.583 424.775 171.199 424.556 170.94C424.447 170.811 424.365 170.713 424.311 170.648C424.284 170.615 424.265 170.591 424.252 170.576C424.246 170.568 424.241 170.562 424.238 170.559C424.237 170.557 424.236 170.556 424.235 170.555C424.235 170.555 424.235 170.555 424.235 170.555C424.235 170.555 424.235 170.555 423.07 171.5ZM493.901 213.99C515.648 216.45 537.342 208.673 553.491 200.393C561.585 196.243 568.332 191.942 573.058 188.678C575.422 187.045 577.282 185.671 578.554 184.702C579.19 184.217 579.679 183.834 580.011 183.57C580.177 183.439 580.303 183.337 580.389 183.267C580.432 183.232 580.465 183.206 580.487 183.187C580.499 183.178 580.507 183.171 580.513 183.166C580.516 183.164 580.519 183.162 580.521 183.16C580.521 183.16 580.522 183.159 580.523 183.159C580.523 183.158 580.524 183.158 579.57 182C578.616 180.842 578.616 180.842 578.616 180.842C578.616 180.842 578.616 180.843 578.615 180.843C578.615 180.844 578.613 180.845 578.611 180.847C578.606 180.85 578.599 180.856 578.59 180.864C578.571 180.879 578.542 180.903 578.502 180.935C578.423 180.999 578.304 181.095 578.145 181.221C577.828 181.472 577.355 181.843 576.736 182.315C575.497 183.259 573.674 184.606 571.353 186.209C566.708 189.417 560.074 193.646 552.122 197.723C536.178 205.898 515.121 213.371 494.239 211.009L493.901 213.99Z" fill="url(#paint62_linear_329_2)"/>
<path d="M277.884 1.88299L277.869 0.383072L277.869 0.383072L277.884 1.88299ZM361.316 40.9783C361.311 41.8067 360.635 42.4741 359.807 42.4689L346.307 42.3848C345.479 42.3797 344.811 41.7039 344.816 40.8755C344.821 40.0471 345.497 39.3797 346.326 39.3849L358.325 39.4596L358.4 27.4599C358.405 26.6314 359.081 25.9641 359.909 25.9692C360.738 25.9744 361.405 26.6501 361.4 27.4785L361.316 40.9783ZM203.063 35.4052C202.001 34.3462 202.001 34.3458 202.002 34.3452C202.002 34.3448 202.003 34.3441 202.003 34.3434C202.005 34.342 202.007 34.34 202.009 34.3376C202.014 34.3327 202.021 34.3258 202.03 34.317C202.048 34.2993 202.074 34.2738 202.107 34.2407C202.175 34.1745 202.274 34.0779 202.403 33.9529C202.663 33.703 203.046 33.3395 203.546 32.8787C204.547 31.9571 206.019 30.6455 207.914 29.0728C211.703 25.9285 217.191 21.7348 224 17.5273C237.599 9.1246 256.576 0.599204 277.869 0.383072L277.9 3.38292C257.366 3.59135 238.932 11.8271 225.577 20.0794C218.909 24.1993 213.535 28.3066 209.83 31.3813C207.978 32.9182 206.545 34.1956 205.578 35.0858C205.095 35.5308 204.728 35.8788 204.484 36.114C204.362 36.2315 204.271 36.3208 204.211 36.3799C204.181 36.4094 204.158 36.4313 204.144 36.4455C204.137 36.4526 204.132 36.4577 204.129 36.4608C204.127 36.4624 204.126 36.4635 204.126 36.464C204.125 36.4643 204.125 36.4644 204.125 36.4645C204.125 36.4644 204.125 36.4642 203.063 35.4052ZM277.869 0.383072C299.754 0.160935 320.538 10.1162 335.755 20.0049C343.382 24.9613 349.654 29.9297 354.021 33.66C356.205 35.5258 357.915 37.0836 359.081 38.1776C359.665 38.7247 360.112 39.1559 360.415 39.4519C360.567 39.5999 360.682 39.7141 360.761 39.7921C360.8 39.8311 360.83 39.861 360.85 39.8816C360.86 39.8919 360.868 39.8998 360.874 39.9054C360.877 39.9082 360.879 39.9104 360.88 39.9119C360.881 39.9127 360.882 39.9135 360.882 39.9139C360.883 39.9145 360.883 39.9149 359.816 40.9689C358.749 42.023 358.749 42.0231 358.749 42.0231C358.749 42.0229 358.749 42.0227 358.748 42.0223C358.747 42.0215 358.746 42.0201 358.744 42.0181C358.74 42.0141 358.734 42.0077 358.725 41.999C358.708 41.9816 358.681 41.9548 358.645 41.919C358.573 41.8475 358.464 41.7398 358.319 41.5985C358.03 41.3157 357.597 40.8983 357.029 40.3656C355.893 39.3 354.218 37.7736 352.073 35.9411C347.781 32.2747 341.614 27.39 334.12 22.5204C319.096 12.7573 298.915 3.16961 277.9 3.38292L277.869 0.383072Z" fill="url(#paint63_linear_329_2)"/>
<path d="M675.884 1.88299L675.869 0.383072L675.869 0.383072L675.884 1.88299ZM759.316 40.9783C759.311 41.8067 758.635 42.4741 757.807 42.4689L744.307 42.3848C743.479 42.3797 742.811 41.7039 742.816 40.8755C742.821 40.0471 743.497 39.3797 744.326 39.3849L756.325 39.4596L756.4 27.4599C756.405 26.6314 757.081 25.9641 757.909 25.9692C758.738 25.9744 759.405 26.6501 759.4 27.4785L759.316 40.9783ZM601.063 35.4052C600.001 34.3462 600.001 34.3458 600.002 34.3452C600.002 34.3448 600.003 34.3441 600.003 34.3434C600.005 34.342 600.007 34.34 600.009 34.3376C600.014 34.3327 600.021 34.3258 600.03 34.317C600.048 34.2993 600.074 34.2738 600.107 34.2407C600.175 34.1745 600.274 34.0779 600.403 33.9529C600.663 33.703 601.046 33.3395 601.546 32.8787C602.547 31.9571 604.019 30.6455 605.914 29.0728C609.703 25.9285 615.191 21.7348 622 17.5273C635.599 9.1246 654.576 0.599204 675.869 0.383072L675.9 3.38292C655.366 3.59135 636.932 11.8271 623.577 20.0794C616.909 24.1993 611.535 28.3066 607.83 31.3813C605.978 32.9182 604.545 34.1956 603.578 35.0858C603.095 35.5308 602.728 35.8788 602.484 36.114C602.362 36.2315 602.271 36.3208 602.211 36.3799C602.181 36.4094 602.158 36.4313 602.144 36.4455C602.137 36.4526 602.132 36.4577 602.129 36.4608C602.127 36.4624 602.126 36.4635 602.126 36.464C602.125 36.4643 602.125 36.4644 602.125 36.4645C602.125 36.4644 602.125 36.4642 601.063 35.4052ZM675.869 0.383072C697.754 0.160935 718.538 10.1162 733.755 20.0049C741.382 24.9613 747.654 29.9297 752.021 33.66C754.205 35.5258 755.915 37.0836 757.081 38.1776C757.665 38.7247 758.112 39.1559 758.415 39.4519C758.567 39.5999 758.682 39.7141 758.761 39.7921C758.8 39.8311 758.83 39.861 758.85 39.8816C758.86 39.8919 758.868 39.8998 758.874 39.9054C758.877 39.9082 758.879 39.9104 758.88 39.9119C758.881 39.9127 758.882 39.9135 758.882 39.9139C758.883 39.9145 758.883 39.9149 757.816 40.9689C756.749 42.023 756.749 42.0231 756.749 42.0231C756.749 42.0229 756.749 42.0227 756.748 42.0223C756.747 42.0215 756.746 42.0201 756.744 42.0181C756.74 42.0141 756.734 42.0077 756.725 41.999C756.708 41.9816 756.681 41.9548 756.645 41.919C756.573 41.8475 756.464 41.7398 756.319 41.5985C756.03 41.3157 755.597 40.8983 755.029 40.3656C753.893 39.3 752.218 37.7736 750.073 35.9411C745.781 32.2747 739.614 27.39 732.12 22.5204C717.096 12.7573 696.915 3.16961 675.9 3.38292L675.869 0.383072Z" fill="url(#paint64_linear_329_2)"/>
<path d="M104.313 178.803C103.328 178.433 102.959 177.068 103.753 176.378V176.378C104.053 176.118 104.458 176.016 104.838 176.128C105.82 176.415 107.73 177.073 108.581 178.053C109.432 179.032 109.816 181.016 109.963 182.028C110.02 182.421 109.863 182.807 109.563 183.067V183.067C108.769 183.757 107.469 183.201 107.241 182.174C107.059 181.356 106.773 180.535 106.321 180.015C105.87 179.496 105.097 179.097 104.313 178.803Z" fill="url(#paint65_linear_329_2)"/>
<path d="M105.75 172.57C104.812 172.053 104.63 170.73 105.44 170.027V170.027C105.895 169.632 106.543 169.554 107.067 169.853C108.512 170.676 111.398 172.442 112.964 174.246C114.531 176.05 115.876 179.154 116.488 180.7C116.71 181.261 116.543 181.892 116.088 182.287V182.287C115.279 182.99 113.994 182.625 113.613 181.623C112.971 179.935 111.951 177.644 110.704 176.209C109.457 174.773 107.332 173.442 105.75 172.57Z" fill="url(#paint66_linear_329_2)"/>
<path d="M108.852 167.518C107.949 166.964 107.812 165.67 108.612 164.975V164.975C109.106 164.546 109.816 164.483 110.367 164.836C111.998 165.882 115.389 168.185 117.306 170.392C119.222 172.599 121.027 176.279 121.835 178.04C122.108 178.635 121.945 179.33 121.452 179.758V179.758C120.651 180.454 119.389 180.137 118.968 179.164C118.112 177.191 116.672 174.227 115.046 172.355C113.419 170.482 110.687 168.642 108.852 167.518Z" fill="url(#paint67_linear_329_2)"/>
<path d="M77 186.64C77 183.878 79.2386 181.64 82 181.64H93.3602C96.1217 181.64 98.3602 183.878 98.3602 186.64V198C98.3602 200.761 96.1217 203 93.3602 203H82C79.2386 203 77 200.761 77 198V186.64Z" fill="url(#paint68_linear_329_2)"/>
<path d="M516.313 178.803C515.328 178.433 514.959 177.068 515.753 176.378V176.378C516.053 176.118 516.458 176.016 516.838 176.128C517.82 176.415 519.731 177.073 520.581 178.053C521.432 179.032 521.816 181.016 521.963 182.028C522.02 182.421 521.863 182.807 521.563 183.067V183.067C520.769 183.757 519.469 183.201 519.241 182.174C519.059 181.356 518.773 180.535 518.321 180.015C517.87 179.496 517.097 179.097 516.313 178.803Z" fill="url(#paint69_linear_329_2)"/>
<path d="M517.75 172.57C516.812 172.053 516.63 170.73 517.44 170.027V170.027C517.895 169.632 518.543 169.554 519.067 169.853C520.512 170.676 523.398 172.442 524.964 174.246C526.531 176.05 527.876 179.154 528.488 180.7C528.71 181.261 528.543 181.892 528.088 182.287V182.287C527.279 182.99 525.994 182.625 525.613 181.623C524.971 179.935 523.951 177.644 522.704 176.209C521.457 174.773 519.332 173.442 517.75 172.57Z" fill="url(#paint70_linear_329_2)"/>
<path d="M520.852 167.518C519.949 166.964 519.812 165.67 520.612 164.975V164.975C521.106 164.546 521.816 164.483 522.367 164.836C523.998 165.882 527.389 168.185 529.306 170.392C531.222 172.599 533.027 176.279 533.835 178.04C534.108 178.635 533.945 179.33 533.452 179.758V179.758C532.651 180.454 531.389 180.137 530.968 179.164C530.111 177.191 528.672 174.227 527.046 172.355C525.419 170.482 522.687 168.642 520.852 167.518Z" fill="url(#paint71_linear_329_2)"/>
<path d="M489 186.64C489 183.878 491.239 181.64 494 181.64H505.36C508.122 181.64 510.36 183.878 510.36 186.64V198C510.36 200.761 508.122 203 505.36 203H494C491.239 203 489 200.761 489 198V186.64Z" fill="url(#paint72_linear_329_2)"/>
<path d="M286.313 23.8029C285.328 23.4331 284.959 22.0677 285.753 21.3779V21.3779C286.053 21.1179 286.458 21.0164 286.838 21.1277C287.82 21.4147 289.73 22.0731 290.581 23.0526C291.432 24.0321 291.816 26.0157 291.963 27.0282C292.02 27.4206 291.863 27.8075 291.563 28.0674V28.0674C290.769 28.7573 289.469 28.2005 289.241 27.1735C289.059 26.3564 288.773 25.5352 288.321 25.0154C287.87 24.4956 287.097 24.0971 286.313 23.8029Z" fill="url(#paint73_linear_329_2)"/>
<path d="M287.75 17.5704C286.812 17.053 286.63 15.7298 287.44 15.0272V15.0272C287.895 14.6318 288.543 14.5542 289.067 14.8526C290.512 15.6759 293.398 17.4424 294.964 19.246C296.531 21.0496 297.876 24.1539 298.488 25.7003C298.71 26.2608 298.543 26.892 298.088 27.2873V27.2873C297.279 27.99 295.994 27.625 295.613 26.6234C294.971 24.9351 293.951 22.6444 292.704 21.2088C291.457 19.7732 289.332 18.4425 287.75 17.5704Z" fill="url(#paint74_linear_329_2)"/>
<path d="M290.852 12.5177C289.949 11.9638 289.812 10.6699 290.612 9.97482V9.97482C291.106 9.54608 291.816 9.48253 292.367 9.83563C293.998 10.8823 297.389 13.1849 299.306 15.3918C301.222 17.5987 303.027 21.2788 303.835 23.0405C304.108 23.6348 303.945 24.3297 303.452 24.7585V24.7585C302.651 25.4535 301.389 25.1368 300.968 24.1644C300.112 22.1907 298.672 19.2272 297.046 17.3546C295.419 15.482 292.687 13.6418 290.852 12.5177Z" fill="url(#paint75_linear_329_2)"/>
<path d="M259 31.6398C259 28.8783 261.239 26.6398 264 26.6398H275.36C278.122 26.6398 280.36 28.8783 280.36 31.6398V43C280.36 45.7614 278.122 48 275.36 48H264C261.239 48 259 45.7614 259 43V31.6398Z" fill="url(#paint76_linear_329_2)"/>
<path d="M681.313 23.8029C680.328 23.4331 679.959 22.0677 680.753 21.3779V21.3779C681.053 21.1179 681.458 21.0164 681.838 21.1277C682.82 21.4147 684.731 22.0731 685.581 23.0526C686.432 24.0321 686.816 26.0157 686.963 27.0282C687.02 27.4206 686.863 27.8075 686.563 28.0674V28.0674C685.769 28.7573 684.469 28.2005 684.241 27.1735C684.059 26.3564 683.773 25.5352 683.321 25.0154C682.87 24.4956 682.097 24.0971 681.313 23.8029Z" fill="url(#paint77_linear_329_2)"/>
<path d="M682.75 17.5704C681.812 17.053 681.63 15.7298 682.44 15.0272V15.0272C682.895 14.6318 683.543 14.5542 684.067 14.8526C685.512 15.6759 688.398 17.4424 689.964 19.246C691.531 21.0496 692.876 24.1539 693.488 25.7003C693.71 26.2608 693.543 26.892 693.088 27.2873V27.2873C692.279 27.99 690.994 27.625 690.613 26.6234C689.971 24.9351 688.951 22.6444 687.704 21.2088C686.457 19.7732 684.332 18.4425 682.75 17.5704Z" fill="url(#paint78_linear_329_2)"/>
<path d="M685.852 12.5177C684.949 11.9638 684.812 10.6699 685.612 9.97482V9.97482C686.106 9.54608 686.816 9.48253 687.367 9.83563C688.998 10.8823 692.389 13.1849 694.306 15.3918C696.222 17.5987 698.027 21.2788 698.835 23.0405C699.108 23.6348 698.945 24.3297 698.452 24.7585V24.7585C697.651 25.4535 696.389 25.1368 695.968 24.1644C695.111 22.1907 693.672 19.2272 692.046 17.3546C690.419 15.482 687.687 13.6418 685.852 12.5177Z" fill="url(#paint79_linear_329_2)"/>
<path d="M654 31.6398C654 28.8783 656.239 26.6398 659 26.6398H670.36C673.122 26.6398 675.36 28.8783 675.36 31.6398V43C675.36 45.7614 673.122 48 670.36 48H659C656.239 48 654 45.7614 654 43V31.6398Z" fill="url(#paint80_linear_329_2)"/>
<defs>
<filter id="filter0_d_329_2" x="189.251" y="142.695" width="18.3" height="13.9891" filterUnits="userSpaceOnUse" color-interpolation-filters="sRGB">
<feFlood flood-opacity="0" result="BackgroundImageFix"/>
<feColorMatrix in="SourceAlpha" type="matrix" values="0 0 0 0 0 0 0 0 0 0 0 0 0 0 0 0 0 0 127 0" result="hardAlpha"/>
<feOffset dx="4" dy="6"/>
<feGaussianBlur stdDeviation="2"/>
<feComposite in2="hardAlpha" operator="out"/>
<feColorMatrix type="matrix" values="0 0 0 0 0 0 0 0 0 0 0 0 0 0 0 0 0 0 0.25 0"/>
<feBlend mode="normal" in2="BackgroundImageFix" result="effect1_dropShadow_329_2"/>
<feBlend mode="normal" in="SourceGraphic" in2="effect1_dropShadow_329_2" result="shape"/>
</filter>
<filter id="filter1_d_329_2" x="191.551" y="141.993" width="12.5902" height="11.096" filterUnits="userSpaceOnUse" color-interpolation-filters="sRGB">
<feFlood flood-opacity="0" result="BackgroundImageFix"/>
<feColorMatrix in="SourceAlpha" type="matrix" values="0 0 0 0 0 0 0 0 0 0 0 0 0 0 0 0 0 0 127 0" result="hardAlpha"/>
<feOffset dx="-4" dy="3"/>
<feGaussianBlur stdDeviation="2"/>
<feComposite in2="hardAlpha" operator="out"/>
<feColorMatrix type="matrix" values="0 0 0 0 0 0 0 0 0 0 0 0 0 0 0 0 0 0 0.25 0"/>
<feBlend mode="normal" in2="BackgroundImageFix" result="effect1_dropShadow_329_2"/>
<feBlend mode="normal" in="SourceGraphic" in2="effect1_dropShadow_329_2" result="shape"/>
</filter>
<filter id="filter2_d_329_2" x="175.144" y="140.344" width="18.3" height="13.9891" filterUnits="userSpaceOnUse" color-interpolation-filters="sRGB">
<feFlood flood-opacity="0" result="BackgroundImageFix"/>
<feColorMatrix in="SourceAlpha" type="matrix" values="0 0 0 0 0 0 0 0 0 0 0 0 0 0 0 0 0 0 127 0" result="hardAlpha"/>
<feOffset dx="4" dy="6"/>
<feGaussianBlur stdDeviation="2"/>
<feComposite in2="hardAlpha" operator="out"/>
<feColorMatrix type="matrix" values="0 0 0 0 0 0 0 0 0 0 0 0 0 0 0 0 0 0 0.25 0"/>
<feBlend mode="normal" in2="BackgroundImageFix" result="effect1_dropShadow_329_2"/>
<feBlend mode="normal" in="SourceGraphic" in2="effect1_dropShadow_329_2" result="shape"/>
</filter>
<filter id="filter3_d_329_2" x="177.444" y="139.642" width="12.5902" height="11.096" filterUnits="userSpaceOnUse" color-interpolation-filters="sRGB">
<feFlood flood-opacity="0" result="BackgroundImageFix"/>
<feColorMatrix in="SourceAlpha" type="matrix" values="0 0 0 0 0 0 0 0 0 0 0 0 0 0 0 0 0 0 127 0" result="hardAlpha"/>
<feOffset dx="-4" dy="3"/>
<feGaussianBlur stdDeviation="2"/>
<feComposite in2="hardAlpha" operator="out"/>
<feColorMatrix type="matrix" values="0 0 0 0 0 0 0 0 0 0 0 0 0 0 0 0 0 0 0.25 0"/>
<feBlend mode="normal" in2="BackgroundImageFix" result="effect1_dropShadow_329_2"/>
<feBlend mode="normal" in="SourceGraphic" in2="effect1_dropShadow_329_2" result="shape"/>
</filter>
<filter id="filter4_d_329_2" x="182.198" y="146.614" width="18.3" height="13.9891" filterUnits="userSpaceOnUse" color-interpolation-filters="sRGB">
<feFlood flood-opacity="0" result="BackgroundImageFix"/>
<feColorMatrix in="SourceAlpha" type="matrix" values="0 0 0 0 0 0 0 0 0 0 0 0 0 0 0 0 0 0 127 0" result="hardAlpha"/>
<feOffset dx="4" dy="6"/>
<feGaussianBlur stdDeviation="2"/>
<feComposite in2="hardAlpha" operator="out"/>
<feColorMatrix type="matrix" values="0 0 0 0 0 0 0 0 0 0 0 0 0 0 0 0 0 0 0.25 0"/>
<feBlend mode="normal" in2="BackgroundImageFix" result="effect1_dropShadow_329_2"/>
<feBlend mode="normal" in="SourceGraphic" in2="effect1_dropShadow_329_2" result="shape"/>
</filter>
<filter id="filter5_d_329_2" x="184.498" y="145.911" width="12.5902" height="11.096" filterUnits="userSpaceOnUse" color-interpolation-filters="sRGB">
<feFlood flood-opacity="0" result="BackgroundImageFix"/>
<feColorMatrix in="SourceAlpha" type="matrix" values="0 0 0 0 0 0 0 0 0 0 0 0 0 0 0 0 0 0 127 0" result="hardAlpha"/>
<feOffset dx="-4" dy="3"/>
<feGaussianBlur stdDeviation="2"/>
<feComposite in2="hardAlpha" operator="out"/>
<feColorMatrix type="matrix" values="0 0 0 0 0 0 0 0 0 0 0 0 0 0 0 0 0 0 0.25 0"/>
<feBlend mode="normal" in2="BackgroundImageFix" result="effect1_dropShadow_329_2"/>
<feBlend mode="normal" in="SourceGraphic" in2="effect1_dropShadow_329_2" result="shape"/>
</filter>
<filter id="filter6_d_329_2" x="168.091" y="143.479" width="18.3" height="13.9891" filterUnits="userSpaceOnUse" color-interpolation-filters="sRGB">
<feFlood flood-opacity="0" result="BackgroundImageFix"/>
<feColorMatrix in="SourceAlpha" type="matrix" values="0 0 0 0 0 0 0 0 0 0 0 0 0 0 0 0 0 0 127 0" result="hardAlpha"/>
<feOffset dx="4" dy="6"/>
<feGaussianBlur stdDeviation="2"/>
<feComposite in2="hardAlpha" operator="out"/>
<feColorMatrix type="matrix" values="0 0 0 0 0 0 0 0 0 0 0 0 0 0 0 0 0 0 0.25 0"/>
<feBlend mode="normal" in2="BackgroundImageFix" result="effect1_dropShadow_329_2"/>
<feBlend mode="normal" in="SourceGraphic" in2="effect1_dropShadow_329_2" result="shape"/>
</filter>
<filter id="filter7_d_329_2" x="170.391" y="142.777" width="12.5902" height="11.096" filterUnits="userSpaceOnUse" color-interpolation-filters="sRGB">
<feFlood flood-opacity="0" result="BackgroundImageFix"/>
<feColorMatrix in="SourceAlpha" type="matrix" values="0 0 0 0 0 0 0 0 0 0 0 0 0 0 0 0 0 0 127 0" result="hardAlpha"/>
<feOffset dx="-4" dy="3"/>
<feGaussianBlur stdDeviation="2"/>
<feComposite in2="hardAlpha" operator="out"/>
<feColorMatrix type="matrix" values="0 0 0 0 0 0 0 0 0 0 0 0 0 0 0 0 0 0 0.25 0"/>
<feBlend mode="normal" in2="BackgroundImageFix" result="effect1_dropShadow_329_2"/>
<feBlend mode="normal" in="SourceGraphic" in2="effect1_dropShadow_329_2" result="shape"/>
</filter>
<filter id="filter8_d_329_2" x="175.144" y="151.316" width="18.3" height="13.9891" filterUnits="userSpaceOnUse" color-interpolation-filters="sRGB">
<feFlood flood-opacity="0" result="BackgroundImageFix"/>
<feColorMatrix in="SourceAlpha" type="matrix" values="0 0 0 0 0 0 0 0 0 0 0 0 0 0 0 0 0 0 127 0" result="hardAlpha"/>
<feOffset dx="4" dy="6"/>
<feGaussianBlur stdDeviation="2"/>
<feComposite in2="hardAlpha" operator="out"/>
<feColorMatrix type="matrix" values="0 0 0 0 0 0 0 0 0 0 0 0 0 0 0 0 0 0 0.25 0"/>
<feBlend mode="normal" in2="BackgroundImageFix" result="effect1_dropShadow_329_2"/>
<feBlend mode="normal" in="SourceGraphic" in2="effect1_dropShadow_329_2" result="shape"/>
</filter>
<filter id="filter9_d_329_2" x="177.444" y="150.614" width="12.5902" height="11.096" filterUnits="userSpaceOnUse" color-interpolation-filters="sRGB">
<feFlood flood-opacity="0" result="BackgroundImageFix"/>
<feColorMatrix in="SourceAlpha" type="matrix" values="0 0 0 0 0 0 0 0 0 0 0 0 0 0 0 0 0 0 127 0" result="hardAlpha"/>
<feOffset dx="-4" dy="3"/>
<feGaussianBlur stdDeviation="2"/>
<feComposite in2="hardAlpha" operator="out"/>
<feColorMatrix type="matrix" values="0 0 0 0 0 0 0 0 0 0 0 0 0 0 0 0 0 0 0.25 0"/>
<feBlend mode="normal" in2="BackgroundImageFix" result="effect1_dropShadow_329_2"/>
<feBlend mode="normal" in="SourceGraphic" in2="effect1_dropShadow_329_2" result="shape"/>
</filter>
<filter id="filter10_d_329_2" x="159.47" y="147.397" width="18.3" height="13.9891" filterUnits="userSpaceOnUse" color-interpolation-filters="sRGB">
<feFlood flood-opacity="0" result="BackgroundImageFix"/>
<feColorMatrix in="SourceAlpha" type="matrix" values="0 0 0 0 0 0 0 0 0 0 0 0 0 0 0 0 0 0 127 0" result="hardAlpha"/>
<feOffset dx="4" dy="6"/>
<feGaussianBlur stdDeviation="2"/>
<feComposite in2="hardAlpha" operator="out"/>
<feColorMatrix type="matrix" values="0 0 0 0 0 0 0 0 0 0 0 0 0 0 0 0 0 0 0.25 0"/>
<feBlend mode="normal" in2="BackgroundImageFix" result="effect1_dropShadow_329_2"/>
<feBlend mode="normal" in="SourceGraphic" in2="effect1_dropShadow_329_2" result="shape"/>
</filter>
<filter id="filter11_d_329_2" x="161.77" y="146.695" width="12.5902" height="11.096" filterUnits="userSpaceOnUse" color-interpolation-filters="sRGB">
<feFlood flood-opacity="0" result="BackgroundImageFix"/>
<feColorMatrix in="SourceAlpha" type="matrix" values="0 0 0 0 0 0 0 0 0 0 0 0 0 0 0 0 0 0 127 0" result="hardAlpha"/>
<feOffset dx="-4" dy="3"/>
<feGaussianBlur stdDeviation="2"/>
<feComposite in2="hardAlpha" operator="out"/>
<feColorMatrix type="matrix" values="0 0 0 0 0 0 0 0 0 0 0 0 0 0 0 0 0 0 0.25 0"/>
<feBlend mode="normal" in2="BackgroundImageFix" result="effect1_dropShadow_329_2"/>
<feBlend mode="normal" in="SourceGraphic" in2="effect1_dropShadow_329_2" result="shape"/>
</filter>
<filter id="filter12_d_329_2" x="164.956" y="154.742" width="20.3928" height="14.7995" filterUnits="userSpaceOnUse" color-interpolation-filters="sRGB">
<feFlood flood-opacity="0" result="BackgroundImageFix"/>
<feColorMatrix in="SourceAlpha" type="matrix" values="0 0 0 0 0 0 0 0 0 0 0 0 0 0 0 0 0 0 127 0" result="hardAlpha"/>
<feOffset dx="4" dy="6"/>
<feGaussianBlur stdDeviation="2"/>
<feComposite in2="hardAlpha" operator="out"/>
<feColorMatrix type="matrix" values="0 0 0 0 0 0 0 0 0 0 0 0 0 0 0 0 0 0 0.25 0"/>
<feBlend mode="normal" in2="BackgroundImageFix" result="effect1_dropShadow_329_2"/>
<feBlend mode="normal" in="SourceGraphic" in2="effect1_dropShadow_329_2" result="shape"/>
</filter>
<filter id="filter13_d_329_2" x="169.349" y="154.1" width="13.5228" height="11.725" filterUnits="userSpaceOnUse" color-interpolation-filters="sRGB">
<feFlood flood-opacity="0" result="BackgroundImageFix"/>
<feColorMatrix in="SourceAlpha" type="matrix" values="0 0 0 0 0 0 0 0 0 0 0 0 0 0 0 0 0 0 127 0" result="hardAlpha"/>
<feOffset dx="-4" dy="3"/>
<feGaussianBlur stdDeviation="2"/>
<feComposite in2="hardAlpha" operator="out"/>
<feColorMatrix type="matrix" values="0 0 0 0 0 0 0 0 0 0 0 0 0 0 0 0 0 0 0.25 0"/>
<feBlend mode="normal" in2="BackgroundImageFix" result="effect1_dropShadow_329_2"/>
<feBlend mode="normal" in="SourceGraphic" in2="effect1_dropShadow_329_2" result="shape"/>
</filter>
<filter id="filter14_d_329_2" x="148.498" y="151.607" width="20.3928" height="14.7995" filterUnits="userSpaceOnUse" color-interpolation-filters="sRGB">
<feFlood flood-opacity="0" result="BackgroundImageFix"/>
<feColorMatrix in="SourceAlpha" type="matrix" values="0 0 0 0 0 0 0 0 0 0 0 0 0 0 0 0 0 0 127 0" result="hardAlpha"/>
<feOffset dx="4" dy="6"/>
<feGaussianBlur stdDeviation="2"/>
<feComposite in2="hardAlpha" operator="out"/>
<feColorMatrix type="matrix" values="0 0 0 0 0 0 0 0 0 0 0 0 0 0 0 0 0 0 0.25 0"/>
<feBlend mode="normal" in2="BackgroundImageFix" result="effect1_dropShadow_329_2"/>
<feBlend mode="normal" in="SourceGraphic" in2="effect1_dropShadow_329_2" result="shape"/>
</filter>
<filter id="filter15_d_329_2" x="152.891" y="150.965" width="13.5228" height="11.725" filterUnits="userSpaceOnUse" color-interpolation-filters="sRGB">
<feFlood flood-opacity="0" result="BackgroundImageFix"/>
<feColorMatrix in="SourceAlpha" type="matrix" values="0 0 0 0 0 0 0 0 0 0 0 0 0 0 0 0 0 0 127 0" result="hardAlpha"/>
<feOffset dx="-4" dy="3"/>
<feGaussianBlur stdDeviation="2"/>
<feComposite in2="hardAlpha" operator="out"/>
<feColorMatrix type="matrix" values="0 0 0 0 0 0 0 0 0 0 0 0 0 0 0 0 0 0 0.25 0"/>
<feBlend mode="normal" in2="BackgroundImageFix" result="effect1_dropShadow_329_2"/>
<feBlend mode="normal" in="SourceGraphic" in2="effect1_dropShadow_329_2" result="shape"/>
</filter>
<linearGradient id="paint0_linear_329_2" x1="185.332" y1="139.696" x2="271.147" y2="109.524" gradientUnits="userSpaceOnUse">
<stop stop-color="#D8D8D8"/>
<stop offset="1" stop-color="#757575"/>
</linearGradient>
<linearGradient id="paint1_linear_329_2" x1="195.912" y1="58.9749" x2="215.505" y2="110.307" gradientUnits="userSpaceOnUse">
<stop stop-color="#8A8A8A"/>
<stop offset="1" stop-color="#D9D9D9"/>
</linearGradient>
<linearGradient id="paint2_linear_329_2" x1="150.85" y1="85.6207" x2="208.843" y2="69.5549" gradientUnits="userSpaceOnUse">
<stop stop-color="#D1D1D1"/>
<stop offset="1" stop-color="#858585"/>
</linearGradient>
<linearGradient id="paint3_linear_329_2" x1="174.752" y1="69.9467" x2="165.348" y2="123.63" gradientUnits="userSpaceOnUse">
<stop stop-color="#929292"/>
<stop offset="1" stop-color="#D9D9D9"/>
</linearGradient>
<linearGradient id="paint4_linear_329_2" x1="203.222" y1="146.107" x2="199.589" y2="147.457" gradientUnits="userSpaceOnUse">
<stop stop-color="#F1F1F1"/>
<stop offset="1" stop-color="#9F9F9F"/>
</linearGradient>
<linearGradient id="paint5_linear_329_2" x1="190.275" y1="145.827" x2="199.589" y2="147.597" gradientUnits="userSpaceOnUse">
<stop stop-color="#9F9F9F"/>
<stop offset="1" stop-color="#EBEBEB"/>
</linearGradient>
<linearGradient id="paint6_linear_329_2" x1="195.205" y1="143.588" x2="193.657" y2="149.721" gradientUnits="userSpaceOnUse">
<stop stop-color="#F9F9F9"/>
<stop offset="1" stop-color="#7C7C7C"/>
</linearGradient>
<linearGradient id="paint7_linear_329_2" x1="201.396" y1="143.41" x2="202.647" y2="146.029" gradientUnits="userSpaceOnUse">
<stop stop-color="white"/>
<stop offset="0.9999" stop-color="#CDCDCD"/>
<stop offset="1" stop-color="#D9D9D9"/>
</linearGradient>
<linearGradient id="paint8_linear_329_2" x1="189.115" y1="143.755" x2="185.483" y2="145.106" gradientUnits="userSpaceOnUse">
<stop stop-color="#F1F1F1"/>
<stop offset="1" stop-color="#9F9F9F"/>
</linearGradient>
<linearGradient id="paint9_linear_329_2" x1="176.169" y1="143.476" x2="185.483" y2="145.246" gradientUnits="userSpaceOnUse">
<stop stop-color="#9F9F9F"/>
<stop offset="1" stop-color="#EBEBEB"/>
</linearGradient>
<linearGradient id="paint10_linear_329_2" x1="181.098" y1="141.237" x2="179.55" y2="147.37" gradientUnits="userSpaceOnUse">
<stop stop-color="#F9F9F9"/>
<stop offset="1" stop-color="#7C7C7C"/>
</linearGradient>
<linearGradient id="paint11_linear_329_2" x1="187.29" y1="141.059" x2="188.54" y2="143.678" gradientUnits="userSpaceOnUse">
<stop stop-color="white"/>
<stop offset="0.9999" stop-color="#CDCDCD"/>
<stop offset="1" stop-color="#D9D9D9"/>
</linearGradient>
<linearGradient id="paint12_linear_329_2" x1="196.168" y1="150.025" x2="192.536" y2="151.376" gradientUnits="userSpaceOnUse">
<stop stop-color="#F1F1F1"/>
<stop offset="1" stop-color="#9F9F9F"/>
</linearGradient>
<linearGradient id="paint13_linear_329_2" x1="183.222" y1="149.746" x2="192.536" y2="151.515" gradientUnits="userSpaceOnUse">
<stop stop-color="#9F9F9F"/>
<stop offset="1" stop-color="#EBEBEB"/>
</linearGradient>
<linearGradient id="paint14_linear_329_2" x1="188.151" y1="147.507" x2="186.603" y2="153.639" gradientUnits="userSpaceOnUse">
<stop stop-color="#F9F9F9"/>
<stop offset="1" stop-color="#7C7C7C"/>
</linearGradient>
<linearGradient id="paint15_linear_329_2" x1="194.343" y1="147.328" x2="195.594" y2="149.948" gradientUnits="userSpaceOnUse">
<stop stop-color="white"/>
<stop offset="0.9999" stop-color="#CDCDCD"/>
<stop offset="1" stop-color="#D9D9D9"/>
</linearGradient>
<linearGradient id="paint16_linear_329_2" x1="182.062" y1="146.89" x2="178.429" y2="148.241" gradientUnits="userSpaceOnUse">
<stop stop-color="#F1F1F1"/>
<stop offset="1" stop-color="#9F9F9F"/>
</linearGradient>
<linearGradient id="paint17_linear_329_2" x1="169.115" y1="146.611" x2="178.429" y2="148.381" gradientUnits="userSpaceOnUse">
<stop stop-color="#9F9F9F"/>
<stop offset="1" stop-color="#EBEBEB"/>
</linearGradient>
<linearGradient id="paint18_linear_329_2" x1="174.045" y1="144.372" x2="172.497" y2="150.504" gradientUnits="userSpaceOnUse">
<stop stop-color="#F9F9F9"/>
<stop offset="1" stop-color="#7C7C7C"/>
</linearGradient>
<linearGradient id="paint19_linear_329_2" x1="180.237" y1="144.193" x2="181.487" y2="146.813" gradientUnits="userSpaceOnUse">
<stop stop-color="white"/>
<stop offset="0.9999" stop-color="#CDCDCD"/>
<stop offset="1" stop-color="#D9D9D9"/>
</linearGradient>
<linearGradient id="paint20_linear_329_2" x1="189.115" y1="154.727" x2="185.483" y2="156.078" gradientUnits="userSpaceOnUse">
<stop stop-color="#F1F1F1"/>
<stop offset="1" stop-color="#9F9F9F"/>
</linearGradient>
<linearGradient id="paint21_linear_329_2" x1="176.169" y1="154.448" x2="185.483" y2="156.218" gradientUnits="userSpaceOnUse">
<stop stop-color="#9F9F9F"/>
<stop offset="1" stop-color="#EBEBEB"/>
</linearGradient>
<linearGradient id="paint22_linear_329_2" x1="181.098" y1="152.209" x2="179.55" y2="158.341" gradientUnits="userSpaceOnUse">
<stop stop-color="#F9F9F9"/>
<stop offset="1" stop-color="#7C7C7C"/>
</linearGradient>
<linearGradient id="paint23_linear_329_2" x1="187.29" y1="152.03" x2="188.54" y2="154.65" gradientUnits="userSpaceOnUse">
<stop stop-color="white"/>
<stop offset="0.9999" stop-color="#CDCDCD"/>
<stop offset="1" stop-color="#D9D9D9"/>
</linearGradient>
<linearGradient id="paint24_linear_329_2" x1="173.441" y1="150.809" x2="169.809" y2="152.159" gradientUnits="userSpaceOnUse">
<stop stop-color="#F1F1F1"/>
<stop offset="1" stop-color="#9F9F9F"/>
</linearGradient>
<linearGradient id="paint25_linear_329_2" x1="160.495" y1="150.529" x2="169.809" y2="152.299" gradientUnits="userSpaceOnUse">
<stop stop-color="#9F9F9F"/>
<stop offset="1" stop-color="#EBEBEB"/>
</linearGradient>
<linearGradient id="paint26_linear_329_2" x1="165.424" y1="148.291" x2="163.876" y2="154.423" gradientUnits="userSpaceOnUse">
<stop stop-color="#F9F9F9"/>
<stop offset="1" stop-color="#7C7C7C"/>
</linearGradient>
<linearGradient id="paint27_linear_329_2" x1="171.616" y1="148.112" x2="172.866" y2="150.732" gradientUnits="userSpaceOnUse">
<stop stop-color="white"/>
<stop offset="0.9999" stop-color="#CDCDCD"/>
<stop offset="1" stop-color="#D9D9D9"/>
</linearGradient>
<linearGradient id="paint28_linear_329_2" x1="181.766" y1="158.846" x2="177.395" y2="160.471" gradientUnits="userSpaceOnUse">
<stop stop-color="#F1F1F1"/>
<stop offset="1" stop-color="#9F9F9F"/>
</linearGradient>
<linearGradient id="paint29_linear_329_2" x1="166.189" y1="158.51" x2="177.395" y2="160.639" gradientUnits="userSpaceOnUse">
<stop stop-color="#9F9F9F"/>
<stop offset="1" stop-color="#EBEBEB"/>
</linearGradient>
<linearGradient id="paint30_linear_329_2" x1="172.12" y1="155.816" x2="170.257" y2="163.195" gradientUnits="userSpaceOnUse">
<stop stop-color="#F9F9F9"/>
<stop offset="1" stop-color="#7C7C7C"/>
</linearGradient>
<linearGradient id="paint31_linear_329_2" x1="179.57" y1="155.601" x2="181.074" y2="158.753" gradientUnits="userSpaceOnUse">
<stop stop-color="white"/>
<stop offset="0.9999" stop-color="#CDCDCD"/>
<stop offset="1" stop-color="#D9D9D9"/>
</linearGradient>
<linearGradient id="paint32_linear_329_2" x1="165.308" y1="155.711" x2="160.937" y2="157.336" gradientUnits="userSpaceOnUse">
<stop stop-color="#F1F1F1"/>
<stop offset="1" stop-color="#9F9F9F"/>
</linearGradient>
<linearGradient id="paint33_linear_329_2" x1="149.731" y1="155.375" x2="160.937" y2="157.504" gradientUnits="userSpaceOnUse">
<stop stop-color="#9F9F9F"/>
<stop offset="1" stop-color="#EBEBEB"/>
</linearGradient>
<linearGradient id="paint34_linear_329_2" x1="155.662" y1="152.681" x2="153.799" y2="160.06" gradientUnits="userSpaceOnUse">
<stop stop-color="#F9F9F9"/>
<stop offset="1" stop-color="#7C7C7C"/>
</linearGradient>
<linearGradient id="paint35_linear_329_2" x1="163.112" y1="152.467" x2="164.616" y2="155.618" gradientUnits="userSpaceOnUse">
<stop stop-color="white"/>
<stop offset="0.9999" stop-color="#CDCDCD"/>
<stop offset="1" stop-color="#D9D9D9"/>
</linearGradient>
<linearGradient id="paint36_linear_329_2" x1="207.5" y1="94.048" x2="476.539" y2="180.083" gradientUnits="userSpaceOnUse">
<stop stop-color="#C5C5C5"/>
<stop offset="1" stop-color="#ABABAB"/>
</linearGradient>
<linearGradient id="paint37_linear_329_2" x1="449.451" y1="112.054" x2="424.302" y2="135.965" gradientUnits="userSpaceOnUse">
<stop stop-color="#D7D7D7"/>
<stop offset="0.390625" stop-color="white"/>
</linearGradient>
<linearGradient id="paint38_linear_329_2" x1="396.984" y1="102.46" x2="388.227" y2="124.683" gradientUnits="userSpaceOnUse">
<stop stop-color="#E0E0E0"/>
<stop offset="1" stop-color="#FDFDFD" stop-opacity="0.96"/>
</linearGradient>
<linearGradient id="paint39_linear_329_2" x1="367.579" y1="102.46" x2="358.822" y2="124.683" gradientUnits="userSpaceOnUse">
<stop stop-color="#E0E0E0"/>
<stop offset="1" stop-color="#FDFDFD" stop-opacity="0.96"/>
</linearGradient>
<linearGradient id="paint40_linear_329_2" x1="333.18" y1="102.46" x2="324.423" y2="124.683" gradientUnits="userSpaceOnUse">
<stop stop-color="#E0E0E0"/>
<stop offset="1" stop-color="#FDFDFD" stop-opacity="0.96"/>
</linearGradient>
<linearGradient id="paint41_linear_329_2" x1="590.362" y1="89.8134" x2="598.259" y2="127.163" gradientUnits="userSpaceOnUse">
<stop stop-color="#DBDBDB"/>
<stop offset="1" stop-color="#999999"/>
</linearGradient>
<linearGradient id="paint42_linear_329_2" x1="626.779" y1="92.6814" x2="674.249" y2="149.052" gradientUnits="userSpaceOnUse">
<stop stop-color="#DCDCDC"/>
<stop offset="1" stop-color="#7A7A7A"/>
</linearGradient>
<radialGradient id="paint43_radial_329_2" cx="0" cy="0" r="1" gradientUnits="userSpaceOnUse" gradientTransform="translate(600.736 136.785) rotate(90) scale(7.91164)">
<stop stop-color="#DDDDDD"/>
<stop offset="0.0001" stop-color="#E8E8E8"/>
<stop offset="1" stop-color="#B8B8B8"/>
</radialGradient>
<radialGradient id="paint44_radial_329_2" cx="0" cy="0" r="1" gradientUnits="userSpaceOnUse" gradientTransform="translate(643.591 136.785) rotate(90) scale(7.91164)">
<stop stop-color="#DDDDDD"/>
<stop offset="0.0001" stop-color="#E8E8E8"/>
<stop offset="1" stop-color="#B8B8B8"/>
</radialGradient>
<radialGradient id="paint45_radial_329_2" cx="0" cy="0" r="1" gradientUnits="userSpaceOnUse" gradientTransform="translate(537.575 137.281) rotate(90) scale(7.91164)">
<stop stop-color="#DDDDDD"/>
<stop offset="0.0001" stop-color="#E8E8E8"/>
<stop offset="1" stop-color="#B8B8B8"/>
</radialGradient>
<radialGradient id="paint46_radial_329_2" cx="0" cy="0" r="1" gradientUnits="userSpaceOnUse" gradientTransform="translate(554.081 137.281) rotate(90) scale(7.91164)">
<stop stop-color="#DDDDDD"/>
<stop offset="0.0001" stop-color="#E8E8E8"/>
<stop offset="1" stop-color="#B8B8B8"/>
</radialGradient>
<linearGradient id="paint47_linear_329_2" x1="636.998" y1="101.512" x2="646.228" y2="116.017" gradientUnits="userSpaceOnUse">
<stop offset="0.390625" stop-color="white"/>
<stop offset="1" stop-color="#AFAFAF"/>
</linearGradient>
<linearGradient id="paint48_linear_329_2" x1="644.58" y1="100.853" x2="664.03" y2="122.61" gradientUnits="userSpaceOnUse">
<stop stop-color="white"/>
<stop offset="1" stop-color="white" stop-opacity="0"/>
</linearGradient>
<linearGradient id="paint49_linear_329_2" x1="742.91" y1="69.8626" x2="742.91" y2="155.569" gradientUnits="userSpaceOnUse">
<stop stop-color="#E3E3E3"/>
<stop offset="0.708333"/>
</linearGradient>
<linearGradient id="paint50_linear_329_2" x1="742.91" y1="69.8626" x2="742.91" y2="155.569" gradientUnits="userSpaceOnUse">
<stop stop-color="#E3E3E3"/>
<stop offset="0.708333"/>
</linearGradient>
<linearGradient id="paint51_linear_329_2" x1="720.389" y1="69.8626" x2="720.389" y2="155.569" gradientUnits="userSpaceOnUse">
<stop stop-color="#E3E3E3"/>
<stop offset="0.708333"/>
</linearGradient>
<linearGradient id="paint52_linear_329_2" x1="720.389" y1="69.8626" x2="720.389" y2="155.569" gradientUnits="userSpaceOnUse">
<stop stop-color="#E3E3E3"/>
<stop offset="0.708333"/>
</linearGradient>
<linearGradient id="paint53_linear_329_2" x1="820.483" y1="47.3412" x2="820.483" y2="155.569" gradientUnits="userSpaceOnUse">
<stop stop-color="#333333" stop-opacity="0.78125"/>
<stop offset="0.9998" stop-color="#D9D9D9"/>
</linearGradient>
<linearGradient id="paint54_linear_329_2" x1="778.569" y1="57.9763" x2="778.569" y2="155.569" gradientUnits="userSpaceOnUse">
<stop stop-color="#9C9C9C"/>
<stop offset="0.661458" stop-color="white"/>
</linearGradient>
<linearGradient id="paint55_linear_329_2" x1="778.569" y1="57.9763" x2="778.569" y2="155.569" gradientUnits="userSpaceOnUse">
<stop stop-color="#9C9C9C"/>
<stop offset="0.661458" stop-color="white"/>
</linearGradient>
<linearGradient id="paint56_linear_329_2" x1="778.569" y1="57.9763" x2="778.569" y2="155.569" gradientUnits="userSpaceOnUse">
<stop stop-color="#9C9C9C"/>
<stop offset="0.661458" stop-color="white"/>
</linearGradient>
<linearGradient id="paint57_linear_329_2" x1="695.365" y1="82.3744" x2="874.284" y2="177.464" gradientUnits="userSpaceOnUse">
<stop offset="0.00472851" stop-color="#737373"/>
<stop offset="0.859375" stop-color="#BABABA"/>
</linearGradient>
<linearGradient id="paint58_linear_329_2" x1="90.2627" y1="89.1807" x2="-15.9817" y2="89.1807" gradientUnits="userSpaceOnUse">
<stop stop-color="#D9D9D9"/>
<stop offset="1" stop-color="#A0A0A0"/>
</linearGradient>
<linearGradient id="paint59_linear_329_2" x1="92.7872" y1="99.6598" x2="35.5216" y2="153.006" gradientUnits="userSpaceOnUse">
<stop stop-color="#D9D9D9"/>
<stop offset="1" stop-color="#666666"/>
</linearGradient>
<linearGradient id="paint60_linear_329_2" x1="32.6174" y1="138.686" x2="-1.0002" y2="84.8357" gradientUnits="userSpaceOnUse">
<stop stop-color="#D9D9D9"/>
<stop offset="1" stop-color="#575757"/>
</linearGradient>
<linearGradient id="paint61_linear_329_2" x1="134.904" y1="140.166" x2="55.5256" y2="213.399" gradientUnits="userSpaceOnUse">
<stop stop-color="#155C8F"/>
<stop offset="1" stop-color="#308EE6"/>
</linearGradient>
<linearGradient id="paint62_linear_329_2" x1="540.974" y1="140.166" x2="461.596" y2="213.399" gradientUnits="userSpaceOnUse">
<stop stop-color="#155C8F"/>
<stop offset="1" stop-color="#308EE6"/>
</linearGradient>
<linearGradient id="paint63_linear_329_2" x1="317.144" y1="78.6359" x2="245.672" y2="-2.33309" gradientUnits="userSpaceOnUse">
<stop stop-color="#155C8F"/>
<stop offset="1" stop-color="#308EE6"/>
</linearGradient>
<linearGradient id="paint64_linear_329_2" x1="715.144" y1="78.6359" x2="643.672" y2="-2.33309" gradientUnits="userSpaceOnUse">
<stop stop-color="#155C8F"/>
<stop offset="1" stop-color="#308EE6"/>
</linearGradient>
<linearGradient id="paint65_linear_329_2" x1="103.71" y1="176.415" x2="109.52" y2="183.105" gradientUnits="userSpaceOnUse">
<stop stop-color="#308EE6"/>
<stop offset="1" stop-color="#155C8F"/>
</linearGradient>
<linearGradient id="paint66_linear_329_2" x1="105.674" y1="169.824" x2="116.322" y2="182.084" gradientUnits="userSpaceOnUse">
<stop stop-color="#308EE6"/>
<stop offset="1" stop-color="#155C8F"/>
</linearGradient>
<linearGradient id="paint67_linear_329_2" x1="108.92" y1="164.708" x2="121.759" y2="179.491" gradientUnits="userSpaceOnUse">
<stop stop-color="#308EE6"/>
<stop offset="1" stop-color="#155C8F"/>
</linearGradient>
<linearGradient id="paint68_linear_329_2" x1="87.6801" y1="181.64" x2="87.6801" y2="203" gradientUnits="userSpaceOnUse">
<stop stop-color="#308EE6"/>
<stop offset="1" stop-color="#155C8F"/>
</linearGradient>
<linearGradient id="paint69_linear_329_2" x1="515.71" y1="176.415" x2="521.52" y2="183.105" gradientUnits="userSpaceOnUse">
<stop stop-color="#308EE6"/>
<stop offset="1" stop-color="#155C8F"/>
</linearGradient>
<linearGradient id="paint70_linear_329_2" x1="517.674" y1="169.824" x2="528.322" y2="182.084" gradientUnits="userSpaceOnUse">
<stop stop-color="#308EE6"/>
<stop offset="1" stop-color="#155C8F"/>
</linearGradient>
<linearGradient id="paint71_linear_329_2" x1="520.92" y1="164.708" x2="533.759" y2="179.491" gradientUnits="userSpaceOnUse">
<stop stop-color="#308EE6"/>
<stop offset="1" stop-color="#155C8F"/>
</linearGradient>
<linearGradient id="paint72_linear_329_2" x1="499.68" y1="181.64" x2="499.68" y2="203" gradientUnits="userSpaceOnUse">
<stop stop-color="#308EE6"/>
<stop offset="1" stop-color="#155C8F"/>
</linearGradient>
<linearGradient id="paint73_linear_329_2" x1="285.71" y1="21.4155" x2="291.52" y2="28.105" gradientUnits="userSpaceOnUse">
<stop stop-color="#308EE6"/>
<stop offset="1" stop-color="#155C8F"/>
</linearGradient>
<linearGradient id="paint74_linear_329_2" x1="287.674" y1="14.8236" x2="298.322" y2="27.0838" gradientUnits="userSpaceOnUse">
<stop stop-color="#308EE6"/>
<stop offset="1" stop-color="#155C8F"/>
</linearGradient>
<linearGradient id="paint75_linear_329_2" x1="290.92" y1="9.70763" x2="303.759" y2="24.4913" gradientUnits="userSpaceOnUse">
<stop stop-color="#308EE6"/>
<stop offset="1" stop-color="#155C8F"/>
</linearGradient>
<linearGradient id="paint76_linear_329_2" x1="269.68" y1="26.6398" x2="269.68" y2="48" gradientUnits="userSpaceOnUse">
<stop stop-color="#308EE6"/>
<stop offset="1" stop-color="#155C8F"/>
</linearGradient>
<linearGradient id="paint77_linear_329_2" x1="680.71" y1="21.4155" x2="686.52" y2="28.105" gradientUnits="userSpaceOnUse">
<stop stop-color="#308EE6"/>
<stop offset="1" stop-color="#155C8F"/>
</linearGradient>
<linearGradient id="paint78_linear_329_2" x1="682.674" y1="14.8236" x2="693.322" y2="27.0838" gradientUnits="userSpaceOnUse">
<stop stop-color="#308EE6"/>
<stop offset="1" stop-color="#155C8F"/>
</linearGradient>
<linearGradient id="paint79_linear_329_2" x1="685.92" y1="9.70763" x2="698.759" y2="24.4913" gradientUnits="userSpaceOnUse">
<stop stop-color="#308EE6"/>
<stop offset="1" stop-color="#155C8F"/>
</linearGradient>
<linearGradient id="paint80_linear_329_2" x1="664.68" y1="26.6398" x2="664.68" y2="48" gradientUnits="userSpaceOnUse">
<stop stop-color="#308EE6"/>
<stop offset="1" stop-color="#155C8F"/>
</linearGradient>
</defs>
</svg>
