<svg width="1000" height="1000" viewBox="0 0 1000 1000" fill="none" xmlns="http://www.w3.org/2000/svg">
<rect width="1000" height="1000" fill="#308EE5"/>
<circle r="68.0749" transform="matrix(1 0 0 -1 353.423 277.908)" fill="white"/>
<path d="M407.866 237.259C400.769 244.356 392.341 249.983 383.063 253.819C373.786 257.655 363.84 259.625 353.794 259.616C343.748 259.607 333.799 257.62 324.515 253.767C315.23 249.914 306.792 244.272 299.682 237.162L353.726 152.143L407.866 237.259Z" fill="white"/>
<circle r="68.0749" transform="matrix(1 0 0 -1 146.148 403.617)" fill="white"/>
<path d="M200.591 362.967C193.494 370.064 185.066 375.692 175.788 379.528C166.51 383.364 156.565 385.334 146.519 385.325C136.473 385.316 126.524 383.328 117.239 379.475C107.955 375.623 99.5165 369.98 92.4067 362.871L146.451 277.851L200.591 362.967Z" fill="white"/>
<circle r="68.0749" transform="matrix(1 0 0 -1 352.463 514.931)" fill="white"/>
<path d="M406.906 474.281C399.809 481.379 391.381 487.006 382.103 490.842C372.826 494.678 362.88 496.648 352.834 496.639C342.788 496.63 332.839 494.642 323.555 490.79C314.27 486.937 305.832 481.295 298.722 474.185L352.766 389.166L406.906 474.281Z" fill="white"/>
<circle r="68.0749" transform="matrix(1 0 0 -1 147.108 654.074)" fill="white"/>
<path d="M201.551 613.424C194.454 620.521 186.026 626.149 176.748 629.985C167.47 633.821 157.525 635.791 147.479 635.782C137.433 635.773 127.484 633.785 118.199 629.933C108.915 626.08 100.476 620.438 93.3667 613.328L147.411 528.308L201.551 613.424Z" fill="white"/>
<circle r="68.0749" transform="matrix(1 0 0 -1 350.544 779.782)" fill="white"/>
<path d="M404.987 739.133C397.89 746.23 389.462 751.857 380.185 755.693C370.907 759.529 360.961 761.499 350.915 761.49C340.869 761.481 330.92 759.494 321.636 755.641C312.351 751.788 303.913 746.146 296.803 739.036L350.847 654.017L404.987 739.133Z" fill="white"/>
<rect width="300" height="300" rx="69" transform="matrix(0.901435 -0.38215 0.159568 0.96802 600.745 166.965)" fill="#155C8F"/>
<rect width="300" height="300" rx="69" transform="matrix(0.901435 -0.38215 0.159568 0.96802 582.193 192.512)" fill="white"/>
<path d="M639.808 888.192C644.884 893.269 653.116 893.269 658.192 888.192L740.924 805.461C746.001 800.384 746.001 792.153 740.924 787.076C735.847 781.999 727.616 781.999 722.539 787.076L649 860.615L575.461 787.076C570.384 781.999 562.153 781.999 557.076 787.076C551.999 792.153 551.999 800.384 557.076 805.461L639.808 888.192ZM636 598L636 879L662 879L662 598L636 598Z" fill="white"/>
<path d="M862.808 749.192C867.884 754.269 876.116 754.269 881.192 749.192L963.924 666.461C969.001 661.384 969.001 653.153 963.924 648.076C958.847 642.999 950.616 642.999 945.539 648.076L872 721.615L798.461 648.076C793.384 642.999 785.153 642.999 780.076 648.076C774.999 653.153 774.999 661.384 780.076 666.461L862.808 749.192ZM859 459L859 740L885 740L885 459L859 459Z" fill="white"/>
</svg>
