<svg width="1000" height="1000" viewBox="0 0 1000 1000" fill="none" xmlns="http://www.w3.org/2000/svg">
<rect width="1000" height="1000" fill="#308EE5"/>
<circle cx="500" cy="500" r="91" fill="white"/>
<path d="M603.918 388.362C598.344 374.651 608.282 359 623.083 359H638.411C646.458 359 653.697 363.786 656.567 371.303C666.255 396.677 687 456.077 687 499.5C687 542.923 666.255 602.324 656.567 627.698C653.697 635.215 646.458 640 638.411 640H623.083C608.282 640 598.344 624.349 603.918 610.639C615.879 581.215 631.828 535.276 631.828 499.5C631.828 463.725 615.879 417.785 603.918 388.362Z" fill="white"/>
<path d="M704.327 267.263C701.256 254.479 710.907 242 724.055 242H742.764C752.084 242 760.148 248.402 762.087 257.518C770.934 299.105 794 415.582 794 499.5C794 583.418 770.934 699.895 762.087 741.482C760.148 750.598 752.084 757 742.764 757H724.055C710.907 757 701.256 744.521 704.327 731.737C715.792 684.006 738.828 578.3 738.828 499.5C738.828 420.7 715.792 314.994 704.327 267.263Z" fill="white"/>
<path d="M810.104 211.369C807.569 198.83 817.132 187 829.924 187H849.141C858.743 187 866.962 193.737 868.641 203.191C877.129 250.987 901 394.559 901 497.5C901 600.441 877.129 744.013 868.641 791.809C866.962 801.263 858.743 808 849.141 808H829.924C817.132 808 807.569 796.17 810.104 783.631C821.056 729.455 845.828 596.034 845.828 497.5C845.828 398.966 821.056 265.545 810.104 211.369Z" fill="white"/>
<path d="M396.082 609.638C401.656 623.349 391.718 639 376.918 639L361.589 639C353.543 639 346.304 634.215 343.433 626.697C333.745 601.324 313 541.923 313 498.5C313 455.077 333.745 395.676 343.433 370.302C346.304 362.785 353.543 358 361.589 358L376.918 358C391.718 358 401.656 373.651 396.082 387.361C384.121 416.785 368.172 462.724 368.172 498.5C368.172 534.275 384.121 580.215 396.082 609.638Z" fill="white"/>
<path d="M295.673 730.737C298.744 743.521 289.093 756 275.945 756L257.236 756C247.916 756 239.852 749.598 237.913 740.482C229.066 698.895 206 582.418 206 498.5C206 414.582 229.066 298.105 237.913 256.518C239.852 247.402 247.916 241 257.236 241L275.945 241C289.093 241 298.744 253.479 295.673 266.263C284.208 313.994 261.173 419.699 261.172 498.5C261.172 577.3 284.208 683.006 295.673 730.737Z" fill="white"/>
<path d="M189.896 784.631C192.431 797.17 182.868 809 170.076 809L150.859 809C141.257 809 133.038 802.263 131.359 792.809C122.871 745.013 99 601.441 99.0001 498.5C99.0001 395.559 122.871 251.987 131.359 204.191C133.038 194.737 141.257 188 150.859 188L170.076 188C182.868 188 192.431 199.83 189.896 212.369C178.944 266.545 154.172 399.966 154.172 498.5C154.172 597.034 178.944 730.455 189.896 784.631Z" fill="white"/>
</svg>
