<svg width="1000" height="1000" viewBox="0 0 1000 1000" fill="none" xmlns="http://www.w3.org/2000/svg">
<rect width="1000" height="1000" fill="#308EE5"/>
<path d="M233 250C233 250 393.043 189 500 189C606.956 189 767 250 767 250C767 250 776.408 437.718 767 506C739.588 704.946 500 866 500 866C500 866 260.412 704.946 233 506C223.592 437.718 233 250 233 250Z" fill="white"/>
<ellipse cx="500" cy="409.5" rx="73" ry="72.5" fill="#308EE6"/>
<path d="M465.496 471.55L508.245 476.965L501.231 655.983L442.135 655.983L465.496 471.55Z" fill="#308EE6"/>
<path d="M534.771 471.55L492.021 476.965L499.035 655.983L558.131 655.983L534.771 471.55Z" fill="#308EE6"/>
</svg>
